# xmcd
#
# Track frame offsets:
#   150
#   11184
#   29512
#   46868
#   71120
#   87272
#   98688
#   112410
#   127197
#   141588
#   157083
#   173571
#   190374
#   206306
#   221364
#   230956
#   247869
#   264034
#   281719
#   299136
#
# Disc length: 4203 seconds
#
# Revision: 0
# Processed by: cddbd v1.5.1PL0 Copyright (c) Steve Scherf et al.
# Submitted via: Media_Universe 3.0
#
DISCID=3b106914
DTITLE=Reba McEntire - Merry Christmas To You/The Secret Of Giving
DYEAR=1900
DGENRE=Country
TTITLE0=Away In A Manger
TTITLE1=On This Day
TTITLE2=O Holy Night
TTITLE3=The Christmas Guest
TTITLE4=Silent Night
TTITLE5=Happy Birthday Jesus(i'll open this one for you)
TTITLE6=White Christmas
TTITLE7=I'll Be Home For Christmas
TTITLE8=A Christmas Letter
TTITLE9=The Christmas Song
TTITLE10=This Is My Prayer For You
TTITLE11=I Saw Mama Kissing Santa Claus
TTITLE12=One Child One Day
TTITLE13=Mary Did You Know
TTITLE14=Up On The Housetop
TTITLE15=The Angels Song
TTITLE16=Santa Claus Is Coming To Town
TTITLE17=The Secret Of Giving
TTITLE18=This Christmas
TTITLE19=Till The Season Comes Around Again
EXTD=
EXTT0=
EXTT1=
EXTT2=
EXTT3=
EXTT4=
EXTT5=
EXTT6=
EXTT7=
EXTT8=
EXTT9=
EXTT10=
EXTT11=
EXTT12=
EXTT13=
EXTT14=
EXTT15=
EXTT16=
EXTT17=
EXTT18=
EXTT19=
PLAYORDER=
